<?xml version="1.0" standalone="no"?>
<!DOCTYPE svg PUBLIC "-//W3C//DTD SVG 20010904//EN"
 "http://www.w3.org/TR/2001/REC-SVG-20010904/DTD/svg10.dtd">
<svg version="1.0" xmlns="http://www.w3.org/2000/svg"
 width="200.000000pt" height="200.000000pt" viewBox="0 0 200.000000 200.000000"
 preserveAspectRatio="xMidYMid meet">
<metadata>
Created by potrace 1.14, written by Peter Selinger 2001-2017
</metadata>
<g transform="translate(0.000000,200.000000) scale(0.100000,-0.100000)"
fill="#000000" stroke="none">
<path d="M919 1776 c-30 -12 -53 -28 -51 -35 1 -7 -2 -9 -8 -6 -14 9 -47 -21
-67 -59 -10 -19 -13 -42 -9 -66 l6 -37 -87 -43 c-67 -33 -105 -61 -169 -124
-68 -68 -89 -96 -127 -176 -25 -52 -50 -119 -57 -147 -7 -29 -16 -53 -21 -53
-4 0 -13 -9 -19 -21 -9 -16 -8 -26 6 -46 9 -15 18 -47 20 -72 22 -264 191
-487 437 -579 79 -30 99 -33 207 -38 379 -15 694 295 684 674 -2 96 -6 118
-35 206 -59 175 -224 345 -393 404 -33 11 -52 25 -60 42 -17 39 -53 90 -59 84
-3 -3 -3 3 0 14 3 14 -6 32 -29 56 -43 47 -92 53 -169 22z m405 -312 c74 -49
134 -105 176 -165 23 -32 39 -63 36 -68 -3 -4 -27 -11 -53 -14 -26 -4 -79 -11
-118 -17 -38 -6 -94 -13 -122 -16 l-53 -5 0 35 c0 25 5 35 20 39 11 3 20 11
20 17 0 8 -9 10 -24 6 -19 -5 -25 -1 -28 17 -7 34 1 47 28 47 15 0 22 5 18 13
-3 8 -18 11 -44 9 l-39 -4 5 -52 c3 -28 9 -70 14 -93 4 -24 7 -43 6 -43 -22
-7 -75 -9 -79 -3 -3 4 -8 31 -11 58 -12 93 -18 115 -32 115 -10 0 -12 -10 -8
-43 5 -36 3 -45 -11 -51 -10 -3 -19 -5 -21 -3 -4 4 -12 46 -13 70 -1 9 -8 17
-16 17 -13 0 -15 -9 -11 -42 3 -24 9 -68 12 -98 l6 -55 -36 -2 c-20 -2 -41 -4
-47 -5 -11 -3 -13 2 -24 82 -3 25 -8 52 -11 61 -3 11 3 19 18 22 15 4 19 10
13 16 -14 13 -87 -1 -93 -17 -2 -8 2 -12 13 -10 11 2 19 -4 21 -17 10 -56 21
-140 19 -143 -2 -2 -18 -6 -37 -9 -18 -2 -77 -13 -130 -22 -54 -10 -103 -14
-109 -10 -14 8 -98 5 -146 -6 -42 -10 -43 3 -3 98 57 136 169 255 297 317 34
17 64 30 66 30 3 0 8 -16 11 -35 9 -45 60 -103 110 -126 107 -48 245 22 263
133 l5 35 51 -18 c27 -10 69 -31 91 -45z m-271 -276 c2 -18 0 -36 -6 -40 -19
-12 -35 3 -39 38 -3 30 -1 34 18 34 17 0 23 -7 27 -32z m550 -390 c-24 -130
-131 -287 -250 -369 -191 -132 -440 -146 -646 -37 -70 37 -174 131 -216 195
-17 25 -31 50 -31 54 0 3 26 10 57 15 32 4 60 8 63 9 3 0 30 5 60 9 30 4 64 9
75 11 11 2 40 7 65 11 25 4 47 8 50 9 3 0 32 5 65 10 33 5 62 9 65 10 3 0 30
5 60 9 30 4 62 9 70 11 27 5 94 16 190 30 83 13 97 13 117 0 35 -23 77 -19
107 11 21 22 56 37 98 43 4 1 5 -14 1 -31z"/>
<path d="M922 615 l-30 -55 28 -15 c16 -8 31 -12 33 -7 3 4 17 29 32 55 25 47
26 49 8 63 -30 22 -40 17 -71 -41z m62 26 c7 -10 -22 -37 -30 -28 -9 8 3 37
15 37 5 0 12 -4 15 -9z m-31 -47 c3 -4 2 -16 -4 -26 -13 -24 -33 -10 -23 15 6
18 16 21 27 11z"/>
<path d="M995 570 c-14 -22 -25 -41 -25 -44 0 -2 11 -11 25 -20 24 -16 25 -16
49 33 l25 48 -25 11 c-22 11 -26 8 -49 -28z m34 -23 c-7 -15 -18 -27 -25 -27
-11 0 -10 8 3 35 9 20 21 31 25 27 5 -5 4 -21 -3 -35z"/>
<path d="M1060 530 c-22 -43 -24 -50 -12 -50 4 0 16 16 26 35 10 19 22 32 27
30 4 -3 10 -1 13 4 5 7 -14 21 -30 21 -2 0 -13 -18 -24 -40z"/>
</g>
</svg>
